<svg xmlns="http://www.w3.org/2000/svg" xmlns:xlink="http://www.w3.org/1999/xlink" id="Analytics" width="2500" height="2498" viewBox="0 0 152.1 152"><style>.st0{fill:url(#SVGID_1_)}.st1{fill:url(#SVGID_2_)}.st2{clip-path:url(#SVGID_4_)}.st3{fill:#f57c00}.st4{fill:#ffc107}.st5{clip-path:url(#SVGID_6_);fill:url(#SVGID_7_)}.st6{opacity:.2;clip-path:url(#SVGID_9_);enable-background:new}.st6,.st7,.st8{fill:#fff}.st7,.st8,.st9{opacity:.2;enable-background:new}.st7{clip-path:url(#SVGID_11_)}.st8{clip-path:url(#SVGID_13_)}.st9{clip-path:url(#SVGID_15_);fill:#bf360c}.st10{fill:url(#SVGID_16_)}</style><linearGradient id="SVGID_1_" x2="152.1" y1="77.32" y2="77.32" gradientTransform="matrix(1 0 0 -1 0 153.32)" gradientUnits="userSpaceOnUse"><stop offset="0" stop-color="#fff" stop-opacity=".1"/><stop offset="1" stop-color="#fff" stop-opacity="0"/></linearGradient><path d="M139.8 0h-27.7c-6.7 0-12.2 5.5-12.2 12.2V48H59.8C53.3 48 48 53.3 48 59.9V100H11.9C5.3 100 0 105.3 0 111.9v28c0 6.6 5.3 11.9 11.9 12.1h128c6.7 0 12.2-5.5 12.2-12.2V12.2C152 5.5 146.5 0 139.8 0z" class="st0" style="fill:url(#SVGID_1_)"/><linearGradient id="SVGID_2_" x2="152.1" y1="77.32" y2="77.32" gradientTransform="matrix(1 0 0 -1 0 153.32)" gradientUnits="userSpaceOnUse"><stop offset="0" stop-color="#fff" stop-opacity=".1"/><stop offset="1" stop-color="#fff" stop-opacity="0"/></linearGradient><path d="M139.8 0h-27.7c-6.7 0-12.2 5.5-12.2 12.2V48H59.8C53.3 48 48 53.3 48 59.9V100H11.9C5.3 100 0 105.3 0 111.9v28c0 6.6 5.3 11.9 11.9 12.1h128c6.7 0 12.2-5.5 12.2-12.2V12.2C152 5.5 146.5 0 139.8 0z" class="st1" style="fill:url(#SVGID_2_)"/><defs><path id="SVGID_3_" d="M139.8 0h-27.5c-6.7 0-12.2 5.5-12.2 12.2V48h-40c-6.6 0-12 5.4-12 12v40H12c-6.6 0-12 5.4-12 12v28c0 6.6 5.4 12 12 12h127.8c6.7 0 12.2-5.5 12.2-12.2V12.2C152 5.5 146.5 0 139.8 0z"/></defs><clipPath id="SVGID_4_"><use overflow="visible" xlink:href="#SVGID_3_"/></clipPath><g class="st2" style="clip-path:url(#SVGID_4_)"><path d="M139.8 0h-27.5c-6.7 0-12.2 5.5-12.2 12.2V152h39.7c6.7 0 12.2-5.5 12.2-12.2V12.2C152 5.5 146.5 0 139.8 0z" class="st3" style="fill:#f57c00"/><path d="M48 60v40H12c-6.6 0-12 5.4-12 12v28c0 6.6 5.4 12 12 12h88V48H60c-6.6 0-12 5.4-12 12z" class="st4" style="fill:#ffc107"/></g><defs><path id="SVGID_5_" d="M139.8 0h-27.5c-6.7 0-12.2 5.5-12.2 12.2V48h-40c-6.6 0-12 5.4-12 12v40H12c-6.6 0-12 5.4-12 12v28c0 6.6 5.4 12 12 12h127.8c6.7 0 12.2-5.5 12.2-12.2V12.2C152 5.5 146.5 0 139.8 0z"/></defs><clipPath id="SVGID_6_"><use overflow="visible" xlink:href="#SVGID_5_"/></clipPath><linearGradient id="SVGID_7_" x1="74.25" x2="148.36" y1="79.07" y2="4.96" gradientTransform="matrix(1 0 0 -1 0 153.32)" gradientUnits="userSpaceOnUse"><stop offset="0" stop-color="#bf360c" stop-opacity=".2"/><stop offset="1" stop-color="#bf360c" stop-opacity=".02"/></linearGradient><path d="M100 48v104h39.7c6.7 0 12.2-5.5 12.2-12.2V100L100 48z" class="st5" style="clip-path:url(#SVGID_6_);fill:url(#SVGID_7_)"/><g><defs><path id="SVGID_8_" d="M139.8 0h-27.5c-6.7 0-12.2 5.5-12.2 12.2V48h-40c-6.6 0-12 5.4-12 12v40H12c-6.6 0-12 5.4-12 12v28c0 6.6 5.4 12 12 12h127.8c6.7 0 12.2-5.5 12.2-12.2V12.2C152 5.5 146.5 0 139.8 0z"/></defs><clipPath id="SVGID_9_"><use overflow="visible" xlink:href="#SVGID_8_"/></clipPath><path d="M60 49h40v-1H60c-6.6 0-12 5.4-12 12v1c0-6.6 5.4-12 12-12z" class="st6" style="clip-path:url(#SVGID_9_);enable-background:new;fill:#fff;opacity:.2"/></g><g><defs><path id="SVGID_10_" d="M139.8 0h-27.5c-6.7 0-12.2 5.5-12.2 12.2V48h-40c-6.6 0-12 5.4-12 12v40H12c-6.6 0-12 5.4-12 12v28c0 6.6 5.4 12 12 12h127.8c6.7 0 12.2-5.5 12.2-12.2V12.2C152 5.5 146.5 0 139.8 0z"/></defs><clipPath id="SVGID_11_"><use overflow="visible" xlink:href="#SVGID_10_"/></clipPath><path d="M12 101h36v-1H12c-6.6 0-12 5.4-12 12v1c0-6.6 5.4-12 12-12z" class="st7" style="clip-path:url(#SVGID_11_);enable-background:new;fill:#fff;opacity:.2"/></g><g><defs><path id="SVGID_12_" d="M139.8 0h-27.5c-6.7 0-12.2 5.5-12.2 12.2V48h-40c-6.6 0-12 5.4-12 12v40H12c-6.6 0-12 5.4-12 12v28c0 6.6 5.4 12 12 12h127.8c6.7 0 12.2-5.5 12.2-12.2V12.2C152 5.5 146.5 0 139.8 0z"/></defs><clipPath id="SVGID_13_"><use overflow="visible" xlink:href="#SVGID_12_"/></clipPath><path d="M139.8 0h-27.5c-6.7 0-12.2 5.5-12.2 12.2v1c0-6.7 5.5-12.2 12.2-12.2h27.5c6.7 0 12.2 5.5 12.2 12.2v-1C152 5.5 146.5 0 139.8 0z" class="st8" style="clip-path:url(#SVGID_13_);enable-background:new;fill:#fff;opacity:.2"/></g><g><defs><path id="SVGID_14_" d="M139.8 0h-27.5c-6.7 0-12.2 5.5-12.2 12.2V48h-40c-6.6 0-12 5.4-12 12v40H12c-6.6 0-12 5.4-12 12v28c0 6.6 5.4 12 12 12h127.8c6.7 0 12.2-5.5 12.2-12.2V12.2C152 5.5 146.5 0 139.8 0z"/></defs><clipPath id="SVGID_15_"><use overflow="visible" xlink:href="#SVGID_14_"/></clipPath><path d="M139.8 151H12c-6.6 0-12-5.4-12-12v1c0 6.6 5.4 12 12 12h127.7c6.7 0 12.2-5.5 12.2-12.2v-1c.1 6.7-5.4 12.2-12.1 12.2z" class="st9" style="clip-path:url(#SVGID_15_);enable-background:new;fill:#bf360c;opacity:.2"/></g><linearGradient id="SVGID_16_" x1="50.969" x2="149.295" y1="102.289" y2="3.963" gradientTransform="matrix(1 0 0 -1 0 153.32)" gradientUnits="userSpaceOnUse"><stop offset="0" stop-color="#fff" stop-opacity=".1"/><stop offset="1" stop-color="#fff" stop-opacity="0"/></linearGradient><path d="M139.8 0h-27.5c-6.7 0-12.2 5.5-12.2 12.2V48h-40c-6.6 0-12 5.4-12 12v40H12c-6.6 0-12 5.4-12 12v28c0 6.6 5.4 12 12 12h127.8c6.7 0 12.2-5.5 12.2-12.2V12.2C152 5.5 146.5 0 139.8 0z" class="st10" style="fill:url(#SVGID_16_)"/><metadata><rdf:RDF xmlns:dc="http://purl.org/dc/elements/1.1/" xmlns:rdf="http://www.w3.org/1999/02/22-rdf-syntax-ns#" xmlns:rdfs="http://www.w3.org/2000/01/rdf-schema#"><rdf:Description about="https://iconscout.com/legal#licenses" dc:date="2017-06-06" dc:description="google-analytics-3" dc:format="image/svg+xml" dc:language="en" dc:publisher="Iconscout" dc:title="google-analytics-3"><dc:creator><rdf:Bag><rdf:li>Icon Mafia</rdf:li></rdf:Bag></dc:creator></rdf:Description></rdf:RDF></metadata></svg>